<svg width="1370" height="190" viewBox="0 0 1370 190" fill="none" xmlns="http://www.w3.org/2000/svg">
<path d="M36.6501 71.4297V83.5097" stroke="#005AA0" stroke-width="3" stroke-miterlimit="10"/>
<path d="M49.0001 54.3093C47.2201 49.1993 42.3601 45.5293 36.6501 45.5293C29.4301 45.5293 23.5701 51.3793 23.5701 58.6093C23.5701 65.8393 29.4201 71.6893 36.6501 71.6893C38.6801 71.6893 40.6101 71.2293 42.3301 70.3993" stroke="#005AA0" stroke-width="3" stroke-miterlimit="10"/>
<path d="M49.73 73.3984V83.5084" stroke="#005AA0" stroke-width="3" stroke-miterlimit="10"/>
<path d="M40.2601 64.4993C40.2601 66.7293 41.0301 68.7793 42.3201 70.3993C44.0501 72.5693 46.7201 73.9593 49.7201 73.9593C52.2201 73.9593 54.5001 72.9893 56.1901 71.3993C58.0301 69.6693 59.1801 67.2193 59.1801 64.4993C59.1801 59.2693 54.9401 55.0393 49.7201 55.0393C44.4901 55.0393 40.2601 59.2793 40.2601 64.4993V64.4993Z" stroke="#005AA0" stroke-width="3" stroke-miterlimit="10"/>
<path d="M961 101.521H1022.88V122.171H961" stroke="#005AA0" stroke-width="3" stroke-miterlimit="10"/>
<path d="M1098.25 104.811L1100.1 122.171H1028.21V101.531H1093.4C1093.4 101.531 1097.89 101.531 1098.25 104.821V104.811Z" stroke="#005AA0" stroke-width="3" stroke-miterlimit="10"/>
<path d="M1022.88 104.451H1028.21" stroke="#005AA0" stroke-width="3" stroke-miterlimit="10"/>
<path d="M1022.88 120.121H1028.21" stroke="#005AA0" stroke-width="3" stroke-miterlimit="10"/>
<path d="M999.78 106.201H989.96V122.161H999.78V106.201Z" stroke="#005AA0" stroke-width="3" stroke-miterlimit="10"/>
<path d="M1077.16 106.201H1067.34V122.161H1077.16V106.201Z" stroke="#005AA0" stroke-width="3" stroke-miterlimit="10"/>
<path d="M1015.01 107.191H1007.2V115.001H1015.01V107.191Z" stroke="#005AA0" stroke-width="3" stroke-miterlimit="10"/>
<path d="M1091.18 107.191H1083.37V115.001H1091.18V107.191Z" stroke="#005AA0" stroke-width="3" stroke-miterlimit="10"/>
<path d="M1059.93 107.191H1035.22V115.001H1059.93V107.191Z" stroke="#005AA0" stroke-width="3" stroke-miterlimit="10"/>
<path d="M961 107.191H982.91V115.001H961" stroke="#005AA0" stroke-width="3" stroke-miterlimit="10"/>
<path d="M1060.54 100.99V96.4199H1051.51V100.99" stroke="#005AA0" stroke-width="3" stroke-miterlimit="10"/>
<path d="M1082.67 101.521V95.0508" stroke="#005AA0" stroke-width="3" stroke-miterlimit="10"/>
<path d="M969.83 101.521V95.0508" stroke="#005AA0" stroke-width="3" stroke-miterlimit="10"/>
<path d="M962 123.04C962 125.03 963.62 126.65 965.61 126.65C967.6 126.65 969.22 125.03 969.22 123.04C969.22 122.74 969.18 122.45 969.11 122.17H962.11C962.04 122.45 962 122.74 962 123.04Z" stroke="#005AA0" stroke-width="3" stroke-miterlimit="10"/>
<path d="M1004.45 123.04C1004.45 125.03 1006.07 126.65 1008.06 126.65C1010.05 126.65 1011.67 125.03 1011.67 123.04C1011.67 122.74 1011.63 122.45 1011.56 122.17H1004.56C1004.49 122.45 1004.45 122.74 1004.45 123.04Z" stroke="#005AA0" stroke-width="3" stroke-miterlimit="10"/>
<path d="M1013.54 123.04C1013.54 125.03 1015.16 126.65 1017.15 126.65C1019.14 126.65 1020.76 125.03 1020.76 123.04C1020.76 122.74 1020.72 122.45 1020.65 122.17H1013.65C1013.58 122.45 1013.54 122.74 1013.54 123.04Z" stroke="#005AA0" stroke-width="3" stroke-miterlimit="10"/>
<path d="M1030.33 123.04C1030.33 125.03 1031.95 126.65 1033.94 126.65C1035.93 126.65 1037.55 125.03 1037.55 123.04C1037.55 122.74 1037.51 122.45 1037.44 122.17H1030.44C1030.37 122.45 1030.33 122.74 1030.33 123.04Z" stroke="#005AA0" stroke-width="3" stroke-miterlimit="10"/>
<path d="M1039.41 123.04C1039.41 125.03 1041.03 126.65 1043.02 126.65C1045.01 126.65 1046.63 125.03 1046.63 123.04C1046.63 122.74 1046.59 122.45 1046.52 122.17H1039.52C1039.45 122.45 1039.41 122.74 1039.41 123.04Z" stroke="#005AA0" stroke-width="3" stroke-miterlimit="10"/>
<path d="M1081.67 123.04C1081.67 125.03 1083.29 126.65 1085.28 126.65C1087.27 126.65 1088.89 125.03 1088.89 123.04C1088.89 122.74 1088.85 122.45 1088.78 122.17H1081.78C1081.71 122.45 1081.67 122.74 1081.67 123.04Z" stroke="#005AA0" stroke-width="3" stroke-miterlimit="10"/>
<path d="M1090.75 123.04C1090.75 125.03 1092.37 126.65 1094.36 126.65C1096.35 126.65 1097.97 125.03 1097.97 123.04C1097.97 122.74 1097.93 122.45 1097.86 122.17H1090.86C1090.79 122.45 1090.75 122.74 1090.75 123.04Z" stroke="#005AA0" stroke-width="3" stroke-miterlimit="10"/>
<path d="M567.57 157.75V186.75" stroke="#005AA0" stroke-width="3" stroke-miterlimit="10"/>
<path d="M559.47 149.01C559.47 153.48 563.1 157.11 567.57 157.11C569.71 157.11 571.66 156.28 573.11 154.92C574.69 153.44 575.67 151.34 575.67 149.01C575.67 144.54 572.04 140.91 567.57 140.91C563.1 140.91 559.47 144.54 559.47 149.01V149.01Z" stroke="#005AA0" stroke-width="3" stroke-miterlimit="10"/>
<path d="M567.57 146.77V153.44" stroke="#005AA0" stroke-width="3" stroke-miterlimit="10"/>
<path d="M563.63 146.77H571.51" stroke="#005AA0" stroke-width="3" stroke-miterlimit="10"/>
<path d="M1130.71 71.3691H1147.76" stroke="#005AA0" stroke-width="3" stroke-miterlimit="10"/>
<path d="M1130.71 64.3105H1147.76" stroke="#005AA0" stroke-width="3" stroke-miterlimit="10"/>
<path d="M1130.71 78.4297H1147.76" stroke="#005AA0" stroke-width="3" stroke-miterlimit="10"/>
<path d="M1130.71 57.25H1147.76" stroke="#005AA0" stroke-width="3" stroke-miterlimit="10"/>
<path d="M1130.29 42.6992H1148.19" stroke="#005AA0" stroke-width="3" stroke-miterlimit="10"/>
<path d="M1148.19 36.3203H1130.29V48.1703H1148.19V36.3203Z" stroke="#005AA0" stroke-width="3" stroke-miterlimit="10"/>
<path d="M1144.06 48.1699V130.97" stroke="#005AA0" stroke-width="3" stroke-miterlimit="10"/>
<path d="M1134.41 36.3196V28.8496H1144.06V36.3196" stroke="#005AA0" stroke-width="3" stroke-miterlimit="10"/>
<path d="M1134.41 48.1699V118.86" stroke="#005AA0" stroke-width="3" stroke-miterlimit="10"/>
<path d="M1136.12 24.8505V13.8105" stroke="#E30613" stroke-width="3" stroke-miterlimit="10"/>
<path d="M1142.36 28.85V6" stroke="#005AA0" stroke-width="3" stroke-miterlimit="10"/>
<path d="M874.87 63.8301L875.13 152.09" stroke="#005AA0" stroke-width="3" stroke-miterlimit="10"/>
<path d="M955.18 152.729L954.87 51.8789L874.82 52.1189L875.13 157.089H854.88" stroke="#005AA0" stroke-width="3" stroke-miterlimit="10"/>
<path d="M848.05 73.5H827.78L828.02 154.25H848.02" stroke="#005AA0" stroke-width="3" stroke-miterlimit="10"/>
<path d="M827.78 82.9902H812.78L812.99 150.28H827.17" stroke="#005AA0" stroke-width="3" stroke-miterlimit="10"/>
<path d="M828.02 152.729L827.81 83.0488" stroke="#005AA0" stroke-width="3" stroke-miterlimit="10"/>
<path d="M914.22 50.6503V44.5703H902.39V47.6103V50.6503" stroke="#005AA0" stroke-width="3" stroke-miterlimit="10"/>
<path d="M949.37 50.6491V34.8691" stroke="#005AA0" stroke-width="3" stroke-miterlimit="10"/>
<path d="M942.08 50.6497V29.6797" stroke="#005AA0" stroke-width="3" stroke-miterlimit="10"/>
<path d="M942.74 39.3789H949.37" stroke="#005AA0" stroke-width="3" stroke-miterlimit="10"/>
<path d="M942.74 46.0198H949.37" stroke="#005AA0" stroke-width="3" stroke-miterlimit="10"/>
<path d="M892.03 50.6503V37.5703" stroke="#005AA0" stroke-width="3" stroke-miterlimit="10"/>
<path d="M885.52 50.6497V41.9297" stroke="#005AA0" stroke-width="3" stroke-miterlimit="10"/>
<path d="M885.52 46.0198H892.03" stroke="#005AA0" stroke-width="3" stroke-miterlimit="10"/>
<path d="M955.18 146.279H848.11" stroke="#005AA0" stroke-width="3" stroke-miterlimit="10"/>
<path d="M843.1 144.379H827.85" stroke="#005AA0" stroke-width="3" stroke-miterlimit="10"/>
<path d="M827.17 142.219H812.56" stroke="#005AA0" stroke-width="3" stroke-miterlimit="10"/>
<path d="M931.62 146.391V157.141" stroke="#005AA0" stroke-width="3" stroke-miterlimit="10"/>
<path d="M917.44 146.391V157.141" stroke="#005AA0" stroke-width="3" stroke-miterlimit="10"/>
<path d="M957.15 157.141H883.92" stroke="#005AA0" stroke-width="3" stroke-miterlimit="10"/>
<path d="M883.53 60.25V69.17" stroke="#005AA0" stroke-width="3" stroke-miterlimit="10"/>
<path d="M890.41 60.25V69.17" stroke="#005AA0" stroke-width="3" stroke-miterlimit="10"/>
<path d="M897.29 60.25V69.17" stroke="#005AA0" stroke-width="3" stroke-miterlimit="10"/>
<path d="M904.17 60.25V69.17" stroke="#005AA0" stroke-width="3" stroke-miterlimit="10"/>
<path d="M911.05 60.2891V69.2091" stroke="#005AA0" stroke-width="3" stroke-miterlimit="10"/>
<path d="M917.93 60.2891V69.2091" stroke="#005AA0" stroke-width="3" stroke-miterlimit="10"/>
<path d="M924.81 60.2891V69.2091" stroke="#005AA0" stroke-width="3" stroke-miterlimit="10"/>
<path d="M931.69 60.2891V69.2091" stroke="#E30613" stroke-width="3" stroke-miterlimit="10"/>
<path d="M938.57 60.2891V69.2091" stroke="#005AA0" stroke-width="3" stroke-miterlimit="10"/>
<path d="M854.88 71.9492V80.8692" stroke="#005AA0" stroke-width="3" stroke-miterlimit="10"/>
<path d="M861.76 71.9492V80.8692" stroke="#E30613" stroke-width="3" stroke-miterlimit="10"/>
<path d="M868.64 71.9492V80.8692" stroke="#005AA0" stroke-width="3" stroke-miterlimit="10"/>
<path d="M834.47 80.8691V89.7891" stroke="#E30613" stroke-width="3" stroke-miterlimit="10"/>
<path d="M841.35 80.8691V89.7891" stroke="#005AA0" stroke-width="3" stroke-miterlimit="10"/>
<path d="M820.28 89.7891V98.7091" stroke="#005AA0" stroke-width="3" stroke-miterlimit="10"/>
<path d="M945.45 60.2891V69.2091" stroke="#005AA0" stroke-width="3" stroke-miterlimit="10"/>
<path d="M904.17 78.5391V87.4591" stroke="#005AA0" stroke-width="3" stroke-miterlimit="10"/>
<path d="M911.05 78.5801V87.5001" stroke="#005AA0" stroke-width="3" stroke-miterlimit="10"/>
<path d="M917.93 78.5801V87.5001" stroke="#005AA0" stroke-width="3" stroke-miterlimit="10"/>
<path d="M924.81 78.5801V87.5001" stroke="#005AA0" stroke-width="3" stroke-miterlimit="10"/>
<path d="M931.69 78.5801V87.5001" stroke="#005AA0" stroke-width="3" stroke-miterlimit="10"/>
<path d="M938.57 78.5801V87.5001" stroke="#005AA0" stroke-width="3" stroke-miterlimit="10"/>
<path d="M945.45 78.5801V87.5001" stroke="#005AA0" stroke-width="3" stroke-miterlimit="10"/>
<path d="M874.87 63.8291L848.02 63.7891L848.29 158.929" stroke="#005AA0" stroke-width="3" stroke-miterlimit="10"/>
<path d="M848.14 79.7793V86.4993" stroke="#005AA0" stroke-width="3" stroke-miterlimit="10"/>
<path d="M848.14 92.2988V99.0188" stroke="#005AA0" stroke-width="3" stroke-miterlimit="10"/>
<path d="M848.14 105V111.72" stroke="#005AA0" stroke-width="3" stroke-miterlimit="10"/>
<path d="M699.71 153.289V85.3789" stroke="#005AA0" stroke-width="3" stroke-miterlimit="10"/>
<path d="M672.04 85.3789V138.119H596.44H590.58L590.57 185.989H672.04H699.71V175.529" stroke="#005AA0" stroke-width="3" stroke-miterlimit="10"/>
<path d="M699.71 84.4004V157.19V163.81" stroke="#005AA0" stroke-width="3" stroke-miterlimit="10"/>
<path d="M685.66 54.7891V74.2991" stroke="#005AA0" stroke-width="3" stroke-miterlimit="10"/>
<path d="M685.66 49.8698V22.7598" stroke="#005AA0" stroke-width="3" stroke-miterlimit="10"/>
<path d="M692.42 28.8105V35.0705L685.77 39.3805L679.13 35.0705V28.8105" stroke="#005AA0" stroke-width="3" stroke-miterlimit="10"/>
<path d="M702.62 71.6998V80.3798V81.3198H695.82V76.6198H693.05V54.6298H696.2L694.71 46.5198H689.05" stroke="#005AA0" stroke-width="3" stroke-miterlimit="10"/>
<path d="M669.57 71.6998V80.3798V81.3198H675.5V76.6198H678.27V54.6298H674.94L676.43 46.5198H681.96" stroke="#005AA0" stroke-width="3" stroke-miterlimit="10"/>
<path d="M680.01 152.941V148.061" stroke="#005AA0" stroke-width="3" stroke-miterlimit="10"/>
<path d="M684.6 152.941V148.061" stroke="#005AA0" stroke-width="3" stroke-miterlimit="10"/>
<path d="M682.1 103.659V93.2793" stroke="#E30613" stroke-width="3" stroke-miterlimit="10"/>
<path d="M689.52 103.659V93.2793" stroke="#005AA0" stroke-width="3" stroke-miterlimit="10"/>
<path d="M655.12 152.941V148.061" stroke="#005AA0" stroke-width="3" stroke-miterlimit="10"/>
<path d="M659.72 152.941V148.061" stroke="#005AA0" stroke-width="3" stroke-miterlimit="10"/>
<path d="M628.56 152.941V148.061" stroke="#005AA0" stroke-width="3" stroke-miterlimit="10"/>
<path d="M633.15 152.941V148.061" stroke="#005AA0" stroke-width="3" stroke-miterlimit="10"/>
<path d="M602.6 153.579V148.129" stroke="#E30613" stroke-width="3" stroke-miterlimit="10"/>
<path d="M606.96 153.579V148.129" stroke="#005AA0" stroke-width="3" stroke-miterlimit="10"/>
<path d="M601.71 169.32V179.35H608.07V162.11C608.07 160.36 606.64 158.93 604.89 158.93C603.14 158.93 601.71 160.36 601.71 162.11V169.32" stroke="#005AA0" stroke-width="3" stroke-miterlimit="10"/>
<path d="M627.39 169.32V179.35H633.75V162.11C633.75 160.36 632.32 158.93 630.57 158.93C628.82 158.93 627.39 160.36 627.39 162.11V169.32" stroke="#005AA0" stroke-width="3" stroke-miterlimit="10"/>
<path d="M654.24 169.32V179.35H660.6V162.11C660.6 160.36 659.17 158.93 657.42 158.93C655.67 158.93 654.24 160.36 654.24 162.11V169.32" stroke="#005AA0" stroke-width="3" stroke-miterlimit="10"/>
<path d="M679.31 169.32V179.35H685.67V162.11C685.67 160.36 684.24 158.93 682.49 158.93C680.74 158.93 679.31 160.36 679.31 162.11V169.32" stroke="#005AA0" stroke-width="3" stroke-miterlimit="10"/>
<path d="M682.49 26.5898H689.13" stroke="#005AA0" stroke-width="3" stroke-miterlimit="10"/>
<path d="M689.1 32.1504H695.73" stroke="#005AA0" stroke-width="3" stroke-miterlimit="10"/>
<path d="M675.82 32.1504H682.45" stroke="#005AA0" stroke-width="3" stroke-miterlimit="10"/>
<path d="M580.9 186.159H447.81C428.51 186.159 412.87 170.519 412.87 151.219C412.87 131.919 428.51 116.279 447.81 116.279H516.18" stroke="#005AA0" stroke-width="3" stroke-miterlimit="10"/>
<path d="M111.51 179.41H33.6902V138.65" stroke="#005AA0" stroke-width="3" stroke-miterlimit="10"/>
<path d="M151.52 179.42H132.29L124.69 179.41V138.65" stroke="#005AA0" stroke-width="3" stroke-miterlimit="10"/>
<path d="M61.8801 138.649H129.55L124.69 129.149V126.239L116.92 116.529H104.27" stroke="#005AA0" stroke-width="3" stroke-miterlimit="10"/>
<path d="M72.5301 116.529H41.4701L33.6901 126.239V129.149L28.8301 138.649H54.5701" stroke="#005AA0" stroke-width="3" stroke-miterlimit="10"/>
<path d="M97.1101 116.529H85.8601" stroke="#005AA0" stroke-width="3" stroke-miterlimit="10"/>
<path d="M104.37 119.34V107.07H98.1101V119.34" stroke="#005AA0" stroke-width="3" stroke-miterlimit="10"/>
<path d="M57.7201 116.53V107.07H52.0801V116.53" stroke="#005AA0" stroke-width="3" stroke-miterlimit="10"/>
<path d="M86.72 119.99V102.73" stroke="#005AA0" stroke-width="3" stroke-miterlimit="10"/>
<path d="M71.6602 102.73V119.99" stroke="#005AA0" stroke-width="3" stroke-miterlimit="10"/>
<path d="M79.1902 93.7402L69.1902 106.01L79.1902 93.7402ZM79.1902 93.7402L89.2002 106.01" stroke="#005AA0" stroke-width="3" stroke-miterlimit="10"/>
<path d="M79.19 115.539C80.9408 115.539 82.36 114.12 82.36 112.369C82.36 110.618 80.9408 109.199 79.19 109.199C77.4393 109.199 76.02 110.618 76.02 112.369C76.02 114.12 77.4393 115.539 79.19 115.539Z" stroke="#E30613" stroke-width="3" stroke-miterlimit="10"/>
<path d="M85.49 180.57V166.02" stroke="#005AA0" stroke-width="3" stroke-miterlimit="10"/>
<path d="M73.76 166.02V178.19" stroke="#005AA0" stroke-width="3" stroke-miterlimit="10"/>
<path d="M79.1901 94.4598V90.3398" stroke="#005AA0" stroke-width="3" stroke-miterlimit="10"/>
<path d="M73.76 166.649C73.76 163.409 76.39 160.789 79.62 160.789C82.85 160.789 85.48 163.419 85.48 166.649" stroke="#005AA0" stroke-width="3" stroke-miterlimit="10"/>
<path d="M85.0101 144.67H74.2201V155.46H85.0101V144.67Z" stroke="#005AA0" stroke-width="3" stroke-miterlimit="10"/>
<path d="M55.4701 156.48H47.2601V144.67H59.7301V150.57" stroke="#005AA0" stroke-width="3" stroke-miterlimit="10"/>
<path d="M52.23 174.031H47.26V162.221H59.73V166.111V173.991" stroke="#005AA0" stroke-width="3" stroke-miterlimit="10"/>
<path d="M107.25 156.48H99.0401V144.67H111.51V150.57" stroke="#005AA0" stroke-width="3" stroke-miterlimit="10"/>
<path d="M104.02 174.031H99.04V162.221H111.51V166.111V173.991" stroke="#005AA0" stroke-width="3" stroke-miterlimit="10"/>
<path d="M67.4402 175.529V143.109" stroke="#005AA0" stroke-width="3" stroke-miterlimit="10"/>
<path d="M40.25 175.529V143.109" stroke="#005AA0" stroke-width="3" stroke-miterlimit="10"/>
<path d="M91.49 175.529V143.109" stroke="#005AA0" stroke-width="3" stroke-miterlimit="10"/>
<path d="M118.57 175.529V143.109" stroke="#005AA0" stroke-width="3" stroke-miterlimit="10"/>
<path d="M73.76 122.721H84.63" stroke="#005AA0" stroke-width="3" stroke-miterlimit="10"/>
<path d="M597.91 93.7793H582.22V105.699H597.91V93.7793Z" stroke="#005AA0" stroke-width="3" stroke-miterlimit="10"/>
<path d="M501.12 105.699V98.2793" stroke="#005AA0" stroke-width="3" stroke-miterlimit="10"/>
<path d="M564.26 82.4805V87.6005" stroke="#005AA0" stroke-width="3" stroke-miterlimit="10"/>
<path d="M570.25 82.4805V87.6005" stroke="#005AA0" stroke-width="3" stroke-miterlimit="10"/>
<path d="M576.23 82.4805V87.6005" stroke="#005AA0" stroke-width="3" stroke-miterlimit="10"/>
<path d="M582.22 82.4805V87.6005" stroke="#005AA0" stroke-width="3" stroke-miterlimit="10"/>
<path d="M510.23 105.699V98.2793" stroke="#005AA0" stroke-width="3" stroke-miterlimit="10"/>
<path d="M519.34 105.699V98.2793" stroke="#005AA0" stroke-width="3" stroke-miterlimit="10"/>
<path d="M528.45 105.699V98.2793" stroke="#005AA0" stroke-width="3" stroke-miterlimit="10"/>
<path d="M537.56 105.699V98.2793" stroke="#005AA0" stroke-width="3" stroke-miterlimit="10"/>
<path d="M546.67 105.699V98.2793" stroke="#005AA0" stroke-width="3" stroke-miterlimit="10"/>
<path d="M571.47 105.7H602.54V77.0205H596.89V68.9805" stroke="#005AA0" stroke-width="3" stroke-miterlimit="10"/>
<path d="M564.26 105.7H558.47V77.0195H593.9" stroke="#005AA0" stroke-width="3" stroke-miterlimit="10"/>
<path d="M544 51.8302C544.784 51.8302 545.42 51.1945 545.42 50.4102C545.42 49.626 544.784 48.9902 544 48.9902C543.216 48.9902 542.58 49.626 542.58 50.4102C542.58 51.1945 543.216 51.8302 544 51.8302Z" fill="#005AA0"/>
<path d="M535.92 51.8302C536.704 51.8302 537.34 51.1945 537.34 50.4102C537.34 49.626 536.704 48.9902 535.92 48.9902C535.136 48.9902 534.5 49.626 534.5 50.4102C534.5 51.1945 535.136 51.8302 535.92 51.8302Z" fill="#005AA0"/>
<path d="M527.84 51.8302C528.624 51.8302 529.26 51.1945 529.26 50.4102C529.26 49.626 528.624 48.9902 527.84 48.9902C527.056 48.9902 526.42 49.626 526.42 50.4102C526.42 51.1945 527.056 51.8302 527.84 51.8302Z" fill="#005AA0"/>
<path d="M519.76 51.8302C520.544 51.8302 521.18 51.1945 521.18 50.4102C521.18 49.626 520.544 48.9902 519.76 48.9902C518.976 48.9902 518.34 49.626 518.34 50.4102C518.34 51.1945 518.976 51.8302 519.76 51.8302Z" fill="#005AA0"/>
<path d="M544 57.9806C544.784 57.9806 545.42 57.3449 545.42 56.5606C545.42 55.7764 544.784 55.1406 544 55.1406C543.216 55.1406 542.58 55.7764 542.58 56.5606C542.58 57.3449 543.216 57.9806 544 57.9806Z" fill="#005AA0"/>
<path d="M535.92 57.9806C536.704 57.9806 537.34 57.3449 537.34 56.5606C537.34 55.7764 536.704 55.1406 535.92 55.1406C535.136 55.1406 534.5 55.7764 534.5 56.5606C534.5 57.3449 535.136 57.9806 535.92 57.9806Z" fill="#E30613"/>
<path d="M527.84 57.9806C528.624 57.9806 529.26 57.3449 529.26 56.5606C529.26 55.7764 528.624 55.1406 527.84 55.1406C527.056 55.1406 526.42 55.7764 526.42 56.5606C526.42 57.3449 527.056 57.9806 527.84 57.9806Z" fill="#005AA0"/>
<path d="M519.76 57.9806C520.544 57.9806 521.18 57.3449 521.18 56.5606C521.18 55.7764 520.544 55.1406 519.76 55.1406C518.976 55.1406 518.34 55.7764 518.34 56.5606C518.34 57.3449 518.976 57.9806 519.76 57.9806Z" fill="#005AA0"/>
<path d="M544 64.2306C544.784 64.2306 545.42 63.5949 545.42 62.8106C545.42 62.0264 544.784 61.3906 544 61.3906C543.216 61.3906 542.58 62.0264 542.58 62.8106C542.58 63.5949 543.216 64.2306 544 64.2306Z" fill="#005AA0"/>
<path d="M535.92 64.2306C536.704 64.2306 537.34 63.5949 537.34 62.8106C537.34 62.0264 536.704 61.3906 535.92 61.3906C535.136 61.3906 534.5 62.0264 534.5 62.8106C534.5 63.5949 535.136 64.2306 535.92 64.2306Z" fill="#005AA0"/>
<path d="M527.84 64.2306C528.624 64.2306 529.26 63.5949 529.26 62.8106C529.26 62.0264 528.624 61.3906 527.84 61.3906C527.056 61.3906 526.42 62.0264 526.42 62.8106C526.42 63.5949 527.056 64.2306 527.84 64.2306Z" fill="#005AA0"/>
<path d="M519.76 64.2306C520.544 64.2306 521.18 63.5949 521.18 62.8106C521.18 62.0264 520.544 61.3906 519.76 61.3906C518.976 61.3906 518.34 62.0264 518.34 62.8106C518.34 63.5949 518.976 64.2306 519.76 64.2306Z" fill="#005AA0"/>
<path d="M501.24 51.8302C502.024 51.8302 502.66 51.1945 502.66 50.4102C502.66 49.626 502.024 48.9902 501.24 48.9902C500.456 48.9902 499.82 49.626 499.82 50.4102C499.82 51.1945 500.456 51.8302 501.24 51.8302Z" fill="#E30613"/>
<path d="M493.16 51.8302C493.944 51.8302 494.58 51.1945 494.58 50.4102C494.58 49.626 493.944 48.9902 493.16 48.9902C492.376 48.9902 491.74 49.626 491.74 50.4102C491.74 51.1945 492.376 51.8302 493.16 51.8302Z" fill="#005AA0"/>
<path d="M485.08 51.8302C485.864 51.8302 486.5 51.1945 486.5 50.4102C486.5 49.626 485.864 48.9902 485.08 48.9902C484.296 48.9902 483.66 49.626 483.66 50.4102C483.66 51.1945 484.296 51.8302 485.08 51.8302Z" fill="#005AA0"/>
<path d="M501.24 57.9806C502.024 57.9806 502.66 57.3449 502.66 56.5606C502.66 55.7764 502.024 55.1406 501.24 55.1406C500.456 55.1406 499.82 55.7764 499.82 56.5606C499.82 57.3449 500.456 57.9806 501.24 57.9806Z" fill="#005AA0"/>
<path d="M493.16 57.9806C493.944 57.9806 494.58 57.3449 494.58 56.5606C494.58 55.7764 493.944 55.1406 493.16 55.1406C492.376 55.1406 491.74 55.7764 491.74 56.5606C491.74 57.3449 492.376 57.9806 493.16 57.9806Z" fill="#005AA0"/>
<path d="M485.08 57.9806C485.864 57.9806 486.5 57.3449 486.5 56.5606C486.5 55.7764 485.864 55.1406 485.08 55.1406C484.296 55.1406 483.66 55.7764 483.66 56.5606C483.66 57.3449 484.296 57.9806 485.08 57.9806Z" fill="#005AA0"/>
<path d="M477 57.9806C477.784 57.9806 478.42 57.3449 478.42 56.5606C478.42 55.7764 477.784 55.1406 477 55.1406C476.216 55.1406 475.58 55.7764 475.58 56.5606C475.58 57.3449 476.216 57.9806 477 57.9806Z" fill="#005AA0"/>
<path d="M501.24 64.2306C502.024 64.2306 502.66 63.5949 502.66 62.8106C502.66 62.0264 502.024 61.3906 501.24 61.3906C500.456 61.3906 499.82 62.0264 499.82 62.8106C499.82 63.5949 500.456 64.2306 501.24 64.2306Z" fill="#005AA0"/>
<path d="M493.16 64.2306C493.944 64.2306 494.58 63.5949 494.58 62.8106C494.58 62.0264 493.944 61.3906 493.16 61.3906C492.376 61.3906 491.74 62.0264 491.74 62.8106C491.74 63.5949 492.376 64.2306 493.16 64.2306Z" fill="#005AA0"/>
<path d="M485.08 64.2306C485.864 64.2306 486.5 63.5949 486.5 62.8106C486.5 62.0264 485.864 61.3906 485.08 61.3906C484.296 61.3906 483.66 62.0264 483.66 62.8106C483.66 63.5949 484.296 64.2306 485.08 64.2306Z" fill="#005AA0"/>
<path d="M477 64.2306C477.784 64.2306 478.42 63.5949 478.42 62.8106C478.42 62.0264 477.784 61.3906 477 61.3906C476.216 61.3906 475.58 62.0264 475.58 62.8106C475.58 63.5949 476.216 64.2306 477 64.2306Z" fill="#005AA0"/>
<path d="M498.26 24.7893V20.8793L496.16 18.7793" stroke="#005AA0" stroke-width="3" stroke-miterlimit="10"/>
<path d="M470.88 83.5391H489.19V95.1191H473.91" stroke="#005AA0" stroke-width="3" stroke-miterlimit="10"/>
<path d="M474.6 95.1191V105.699" stroke="#005AA0" stroke-width="3" stroke-miterlimit="10"/>
<path d="M486.9 95.1191V105.699" stroke="#005AA0" stroke-width="3" stroke-miterlimit="10"/>
<path d="M460 105.7H558.47V77.0199H575.12C575.37 74.9399 575.5 72.8199 575.5 70.6599C575.5 41.8099 552.11 18.4199 523.26 18.4199C494.41 18.4199 471.02 41.8099 471.02 70.6599C471.02 75.0999 471.58 79.3999 472.62 83.5399H446.85" stroke="#005AA0" stroke-width="3" stroke-miterlimit="10"/>
<path d="M484.47 110.93H452.75" stroke="#E30613" stroke-width="3" stroke-miterlimit="10"/>
<path d="M959.71 131.141H1158.48" stroke="#005AA0" stroke-width="3" stroke-miterlimit="10"/>
<path d="M1158.48 131.141C1164.43 131.141 1169.25 135.961 1169.25 141.911C1169.25 147.861 1164.43 152.681 1158.48 152.681H1144.12C1138.17 152.681 1133.35 157.501 1133.35 163.451C1133.35 169.401 1138.17 174.221 1144.12 174.221H1183.62" stroke="#005AA0" stroke-width="3" stroke-miterlimit="10"/>
<path d="M1152.25 173.99L1155.16 167.36L1164.14 161.9L1173.61 165.12L1179.37 174.47" stroke="#005AA0" stroke-width="3" stroke-miterlimit="10"/>
<path d="M700.71 185.99H733.26C740.32 185.99 746.05 180.26 746.05 173.2V170.88C746.05 166.81 749.35 163.52 753.41 163.52H917.44" stroke="#005AA0" stroke-width="3" stroke-miterlimit="10"/>
<path d="M732.13 179.611C736.2 179.611 739.49 176.311 739.49 172.251V169.931C739.49 162.871 745.22 157.141 752.28 157.141H813.36" stroke="#005AA0" stroke-width="3" stroke-miterlimit="10"/>
<path d="M1136.4 124.4H1111.24" stroke="#005AA0" stroke-width="3" stroke-miterlimit="10"/>
<path d="M1004.41 36.0109C1009 36.0109 1012.71 39.7309 1012.71 44.3109C1012.71 48.8909 1008.99 52.6109 1004.41 52.6109H987.8C983.21 52.6109 979.5 48.8909 979.5 44.3109C979.5 39.7209 983.22 36.0109 987.8 36.0109C987.8 31.4209 991.52 27.7109 996.1 27.7109C1000.68 27.7109 1004.4 31.4309 1004.4 36.0109H1004.41Z" stroke="#005AA0" stroke-width="3" stroke-miterlimit="10"/>
<path d="M78.4399 27.2696C81.7099 27.2696 84.3599 29.9196 84.3599 33.1896C84.3599 36.4596 81.7099 39.1096 78.4399 39.1096H66.6099C63.3399 39.1096 60.6899 36.4596 60.6899 33.1896C60.6899 29.9196 63.3399 27.2696 66.6099 27.2696C66.6099 23.9996 69.2599 21.3496 72.5299 21.3496C75.7999 21.3496 78.4499 23.9996 78.4499 27.2696H78.4399Z" stroke="#005AA0" stroke-width="3" stroke-miterlimit="10"/>
<path d="M1077.19 51.7697C1083.59 51.7697 1088.78 56.9597 1088.78 63.3597C1088.78 69.7597 1083.59 74.9497 1077.19 74.9497H1054.02C1047.62 74.9497 1042.43 69.7597 1042.43 63.3597C1042.43 56.9597 1047.62 51.7697 1054.02 51.7697C1054.02 45.3697 1059.21 40.1797 1065.61 40.1797C1072.01 40.1797 1077.2 45.3697 1077.2 51.7697H1077.19Z" stroke="#005AA0" stroke-width="3" stroke-miterlimit="10"/>
<path d="M628.35 60.5306C630.11 58.7706 630.11 55.9006 628.35 54.1406" stroke="#005AA0" stroke-width="3" stroke-miterlimit="10"/>
<path d="M634.74 60.5309C632.98 58.7709 630.11 58.7709 628.35 60.5309" stroke="#005AA0" stroke-width="3" stroke-miterlimit="10"/>
<path d="M642.08 59.86C643.83 56.44 642.47 52.24 639.04 50.5" stroke="#005AA0" stroke-width="3" stroke-miterlimit="10"/>
<path d="M651.44 56.8299C648.02 55.0799 643.82 56.4399 642.08 59.8699" stroke="#005AA0" stroke-width="3" stroke-miterlimit="10"/>
<path d="M952.85 177.381H963.04" stroke="#E30613" stroke-width="3" stroke-miterlimit="10"/>
<path d="M388.17 74.3008H398.35" stroke="#E30613" stroke-width="3" stroke-miterlimit="10"/>
<path d="M370.33 130.529H380.52" stroke="#E30613" stroke-width="3" stroke-miterlimit="10"/>
<path d="M1099.68 178.789H1109.87" stroke="#E30613" stroke-width="3" stroke-miterlimit="10"/>
<path d="M438.41 141.539H448.59" stroke="#E30613" stroke-width="3" stroke-miterlimit="10"/>
<path d="M1098.81 152.68H1109" stroke="#005AA0" stroke-width="3" stroke-miterlimit="10"/>
<path d="M1113.23 163.52H1123.41" stroke="#005AA0" stroke-width="3" stroke-miterlimit="10"/>
<path d="M1017.79 144.68H1027.97" stroke="#005AA0" stroke-width="3" stroke-miterlimit="10"/>
<path d="M923.98 172.99H934.16" stroke="#005AA0" stroke-width="3" stroke-miterlimit="10"/>
<path d="M544 125.98H554.18" stroke="#005AA0" stroke-width="3" stroke-miterlimit="10"/>
<path d="M597.51 120.119H607.69" stroke="#005AA0" stroke-width="3" stroke-miterlimit="10"/>
<path d="M350.41 143.25H360.59" stroke="#005AA0" stroke-width="3" stroke-miterlimit="10"/>
<path d="M780.73 177.381H790.91" stroke="#005AA0" stroke-width="3" stroke-miterlimit="10"/>
<path d="M31.5601 104.17H41.7401" stroke="#005AA0" stroke-width="3" stroke-miterlimit="10"/>
<path d="M465.79 131.82H475.97" stroke="#005AA0" stroke-width="3" stroke-miterlimit="10"/>
<path d="M32.57 115.63C23.7 115.63 16.5 108.44 16.5 99.5602C16.5 90.6802 23.69 83.4902 32.57 83.4902H132" stroke="#005AA0" stroke-width="3" stroke-miterlimit="10"/>
<path d="M135.23 83.5289H153.22C156.62 77.3189 162.98 71.9789 171.71 68.0289C180.96 63.8389 192.02 61.6289 203.68 61.6289C215.34 61.6289 226.39 63.8389 235.65 68.0289C244.94 72.2289 251.55 78.0089 254.76 84.7489" stroke="#005AA0" stroke-width="3" stroke-miterlimit="10"/>
<path d="M258.26 84.7489C261.47 78.0189 268.08 72.2389 277.37 68.0289C286.62 63.8389 297.68 61.6289 309.34 61.6289C321 61.6289 332.05 63.8389 341.31 68.0289C350.03 71.9789 356.39 77.3189 359.8 83.5289H436.85" stroke="#005AA0" stroke-width="3" stroke-miterlimit="10"/>
<path d="M399.86 88.9889H355.84C348.52 75.6489 329.63 67.3789 309.23 67.3789C288.83 67.3789 270.82 74.7489 265.43 85.2989" stroke="#005AA0" stroke-width="3" stroke-miterlimit="10"/>
<path d="M87.6101 88.9889H157.31C164.63 75.6489 183.52 67.3789 203.92 67.3789C224.32 67.3789 242.33 74.7489 247.72 85.2989" stroke="#005AA0" stroke-width="3" stroke-miterlimit="10"/>
<path d="M246.67 91.2905V86.5805L256.58 83.9805L266.48 86.5805V92.2905" stroke="#005AA0" stroke-width="3" stroke-miterlimit="10"/>
<path d="M264.68 54.3594V76.2194" stroke="#005AA0" stroke-width="3" stroke-miterlimit="10"/>
<path d="M248.47 54.3496V76.3496" stroke="#005AA0" stroke-width="3" stroke-miterlimit="10"/>
<path d="M280.89 54.7402V66.5702" stroke="#005AA0" stroke-width="3" stroke-miterlimit="10"/>
<path d="M232.26 54.5488V66.6188" stroke="#005AA0" stroke-width="3" stroke-miterlimit="10"/>
<path d="M199.85 55.5801V61.7101" stroke="#005AA0" stroke-width="3" stroke-miterlimit="10"/>
<path d="M216.05 54.959V62.489" stroke="#005AA0" stroke-width="3" stroke-miterlimit="10"/>
<path d="M167.43 57.5605V70.1805" stroke="#005AA0" stroke-width="3" stroke-miterlimit="10"/>
<path d="M183.64 56.4902V64.1502" stroke="#005AA0" stroke-width="3" stroke-miterlimit="10"/>
<path d="M151.22 74.2891V83.5291" stroke="#005AA0" stroke-width="3" stroke-miterlimit="10"/>
<path d="M151.22 58.6992V70.5592" stroke="#005AA0" stroke-width="3" stroke-miterlimit="10"/>
<path d="M297.1 55.1191V62.4891" stroke="#005AA0" stroke-width="3" stroke-miterlimit="10"/>
<path d="M313.31 55.6191V61.6291" stroke="#005AA0" stroke-width="3" stroke-miterlimit="10"/>
<path d="M329.51 56.4902V64.0002" stroke="#005AA0" stroke-width="3" stroke-miterlimit="10"/>
<path d="M345.72 65.9102V70.2702" stroke="#005AA0" stroke-width="3" stroke-miterlimit="10"/>
<path d="M345.72 57.8496V61.4296" stroke="#005AA0" stroke-width="3" stroke-miterlimit="10"/>
<path d="M361.93 58.6992V83.5292" stroke="#005AA0" stroke-width="3" stroke-miterlimit="10"/>
<path d="M259.46 62.6602V67.3702H253.69" stroke="#005AA0" stroke-width="3" stroke-miterlimit="10"/>
<path d="M310.54 112.649C307.97 111.389 306.56 109.239 306.71 107.039L341.09 109.169L340.64 114.519" stroke="#005AA0" stroke-width="3" stroke-miterlimit="10"/>
<path d="M327.85 94.4297L327 108.44" stroke="#005AA0" stroke-width="3" stroke-miterlimit="10"/>
<path d="M325.97 102.58L311.87 101.73L328.05 80.7402L337.63 103.15L331.52 102.88" stroke="#005AA0" stroke-width="3" stroke-miterlimit="10"/>
<path d="M181.51 50.0588V46.7188" stroke="#005AA0" stroke-width="3" stroke-miterlimit="10"/>
<path d="M219.04 48.3302V44.9902" stroke="#005AA0" stroke-width="3" stroke-miterlimit="10"/>
<path d="M256.58 47.7597V44.4297" stroke="#005AA0" stroke-width="3" stroke-miterlimit="10"/>
<path d="M294.11 48.3202V44.9902" stroke="#005AA0" stroke-width="3" stroke-miterlimit="10"/>
<path d="M331.65 50.0605V46.7305" stroke="#005AA0" stroke-width="3" stroke-miterlimit="10"/>
<path d="M124.99 61.7103C164.26 56.9903 209.04 54.3203 256.58 54.3203C304.12 54.3203 348.9 56.9903 388.17 61.7103" stroke="#005AA0" stroke-width="3" stroke-miterlimit="10"/>
<path d="M388.17 55.1498C348.9 50.4298 304.12 47.7598 256.58 47.7598C209.04 47.7598 164.26 50.4298 124.99 55.1498" stroke="#005AA0" stroke-width="3" stroke-miterlimit="10"/>
<path d="M388.17 61.7103C348.9 56.9903 304.12 54.3203 256.58 54.3203C209.04 54.3203 164.26 56.9903 124.99 61.7103V70.2603" stroke="#005AA0" stroke-width="3" stroke-miterlimit="10"/>
<path d="M319.15 93.4197C312.71 93.4197 312.71 89.1697 306.27 89.1697C299.83 89.1697 299.83 93.4197 293.39 93.4197C286.95 93.4197 286.95 89.1697 280.51 89.1697C274.07 89.1697 274.07 93.4197 267.63 93.4197C261.19 93.4197 261.19 89.1697 254.75 89.1697C248.31 89.1697 248.31 93.4197 241.87 93.4197C235.43 93.4197 235.43 89.1697 228.99 89.1697C222.55 89.1697 222.55 93.4197 216.11 93.4197C209.67 93.4197 209.67 89.1697 203.23 89.1697C196.79 89.1697 196.79 93.4197 190.35 93.4197C183.91 93.4197 183.91 89.1697 177.47 89.1697C171.03 89.1697 171.03 93.4197 164.58 93.4197" stroke="#005AA0" stroke-width="3" stroke-miterlimit="10"/>
<path d="M375.43 116.65C368.99 116.65 368.99 112.4 362.55 112.4C356.11 112.4 356.11 116.65 349.67 116.65C343.23 116.65 343.23 112.4 336.79 112.4C330.35 112.4 330.35 116.65 323.91 116.65C317.47 116.65 317.47 112.4 311.03 112.4C304.59 112.4 304.59 116.65 298.15 116.65C291.71 116.65 291.71 112.4 285.27 112.4" stroke="#005AA0" stroke-width="3" stroke-miterlimit="10"/>
<path d="M1263.9 37.6091H1259.02" stroke="#005AA0" stroke-width="3" stroke-miterlimit="10"/>
<path d="M1282.26 37.6091H1277.38" stroke="#005AA0" stroke-width="3" stroke-miterlimit="10"/>
<path d="M1270.64 44.3396V49.2196" stroke="#005AA0" stroke-width="3" stroke-miterlimit="10"/>
<path d="M1270.64 25.99V30.87" stroke="#005AA0" stroke-width="3" stroke-miterlimit="10"/>
<path d="M1262.42 29.3904L1265.88 32.8404" stroke="#005AA0" stroke-width="3" stroke-miterlimit="10"/>
<path d="M1275.41 42.3708L1278.86 45.8209" stroke="#005AA0" stroke-width="3" stroke-miterlimit="10"/>
<path d="M1278.86 29.3904L1275.41 32.8404" stroke="#005AA0" stroke-width="3" stroke-miterlimit="10"/>
<path d="M1265.88 42.3708L1262.42 45.8209" stroke="#005AA0" stroke-width="3" stroke-miterlimit="10"/>
<path d="M1270.64 41.0107C1272.52 41.0107 1274.04 39.4885 1274.04 37.6107C1274.04 35.7329 1272.52 34.2107 1270.64 34.2107C1268.76 34.2107 1267.24 35.7329 1267.24 37.6107C1267.24 39.4885 1268.76 41.0107 1270.64 41.0107Z" stroke="#005AA0" stroke-width="3" stroke-miterlimit="10"/>
<path d="M1264.04 87L1261.38 97.49L1269.13 95.22L1278.73 85" stroke="#005AA0" stroke-width="3" stroke-miterlimit="10"/>
<path d="M1260.91 80.8891L1256.82 77.0491L1264.57 74.7891L1273.79 77.1291" stroke="#005AA0" stroke-width="3" stroke-miterlimit="10"/>
<path d="M1263.38 89.4795L1260.27 90.3895L1243.91 88.5295L1237.68 82.6795L1235.01 83.4595L1244.31 80.7395L1250.34 83.9895L1255.56 82.4595L1286.99 73.2695L1296.17 75.2395C1296.86 77.6095 1295.5 80.0895 1293.13 80.7795L1278.12 85.1695" stroke="#005AA0" stroke-width="3" stroke-miterlimit="10"/>
<path d="M1277.34 23.82C1277.17 22.94 1276.83 22.17 1276.37 21.51C1275.06 19.62 1272.75 18.62 1270.52 18.49C1267.63 18.31 1265.05 19.95 1263.98 22.48C1263.11 21.91 1262.09 21.54 1260.97 21.46C1257.46 21.19 1254.39 23.82 1254.12 27.34C1254.12 27.34 1254.01 29.12 1255.18 30.57" stroke="#005AA0" stroke-width="3" stroke-miterlimit="10"/>
<path d="M1274.46 60.0993C1274.46 62.2093 1272.75 63.9193 1270.64 63.9193C1268.53 63.9193 1266.82 62.2093 1266.82 60.0993C1266.82 59.1393 1267.17 58.2693 1267.75 57.5993C1268.45 56.7893 1269.48 56.2793 1270.64 56.2793C1272.75 56.2793 1274.46 57.9893 1274.46 60.0993V60.0993Z" stroke="#005AA0" stroke-width="3" stroke-miterlimit="10"/>
<path d="M1279.35 68.8598C1279.37 70.4398 1278.1 71.7398 1276.51 71.7598C1274.93 71.7798 1273.63 70.5098 1273.61 68.9198C1273.61 68.1998 1273.86 67.5398 1274.29 67.0298C1274.81 66.4198 1275.58 66.0298 1276.45 66.0198C1278.03 65.9998 1279.33 67.2698 1279.35 68.8598V68.8598Z" stroke="#005AA0" stroke-width="3" stroke-miterlimit="10"/>
<path d="M1274.11 25.0509C1275.86 24.3009 1277.79 23.8809 1279.82 23.8809C1287.8 23.8809 1294.27 30.3509 1294.27 38.3309C1294.27 46.3109 1287.8 52.7809 1279.82 52.7809H1276.21C1273.82 52.7809 1261.03 52.7809 1257.91 52.7809C1253.43 52.7809 1251.06 49.1009 1250.82 45.7309C1250.69 43.8909 1251.18 42.2009 1252.08 40.8109C1250.03 39.8109 1248.7 37.6409 1248.88 35.2309C1249.04 33.0809 1250.37 31.3009 1252.2 30.4609" stroke="#005AA0" stroke-width="3" stroke-miterlimit="10"/>
<path d="M1351.17 169.77C1344.73 169.77 1344.73 174.02 1338.29 174.02C1331.85 174.02 1331.85 169.77 1325.41 169.77C1318.97 169.77 1318.97 174.02 1312.53 174.02C1306.09 174.02 1306.09 169.77 1299.65 169.77C1293.21 169.77 1293.21 174.02 1286.77 174.02C1280.33 174.02 1280.33 169.77 1273.89 169.77C1267.45 169.77 1267.45 174.02 1261.01 174.02C1254.57 174.02 1254.57 169.77 1248.13 169.77C1241.69 169.77 1241.69 174.02 1235.25 174.02C1228.81 174.02 1228.81 169.77 1222.37 169.77C1215.93 169.77 1215.93 174.02 1209.49 174.02C1203.05 174.02 1203.05 169.77 1196.61 169.77C1190.17 169.77 1190.17 174.02 1183.72 174.02" stroke="#005AA0" stroke-width="3" stroke-miterlimit="10"/>
<path d="M1193.31 123.498H1187.18" stroke="#005AA0" stroke-width="3" stroke-miterlimit="10"/>
<path d="M1229.44 123.498H1223.31" stroke="#005AA0" stroke-width="3" stroke-miterlimit="10"/>
<path d="M1193.31 127.44L1187.87 128.87" stroke="#005AA0" stroke-width="3" stroke-miterlimit="10"/>
<path d="M1228.75 118.129L1223.31 119.559" stroke="#005AA0" stroke-width="3" stroke-miterlimit="10"/>
<path d="M1193.31 119.559L1187.87 118.129" stroke="#E30613" stroke-width="3" stroke-miterlimit="10"/>
<path d="M1228.75 128.87L1223.31 127.44" stroke="#E30613" stroke-width="3" stroke-miterlimit="10"/>
<path d="M1221.09 170.018V160.898H1211.78" stroke="#005AA0" stroke-width="3" stroke-miterlimit="10"/>
<path d="M1205.17 160.898H1195.53V170.018" stroke="#005AA0" stroke-width="3" stroke-miterlimit="10"/>
<path d="M1205.17 136.859H1198.48V130.699H1218.14V136.859H1211.78" stroke="#005AA0" stroke-width="3" stroke-miterlimit="10"/>
<path d="M1218.76 160.989L1214.98 136.859" stroke="#005AA0" stroke-width="3" stroke-miterlimit="10"/>
<path d="M1197.86 160.989L1201.64 136.859" stroke="#005AA0" stroke-width="3" stroke-miterlimit="10"/>
<path d="M1201.93 130.699H1214.68V118.709H1201.93V130.699Z" stroke="#005AA0" stroke-width="3" stroke-miterlimit="10"/>
<path d="M1208.31 108.389L1217.09 118.699H1199.53L1208.31 108.389Z" stroke="#005AA0" stroke-width="3" stroke-miterlimit="10"/>
<path d="M1208.31 100.119V108.389" stroke="#005AA0" stroke-width="3" stroke-miterlimit="10"/>
<path d="M1250.66 170.12C1261.25 162.78 1274.58 158.41 1289.06 158.41C1303.54 158.41 1316.74 162.74 1327.3 170.02" stroke="#005AA0" stroke-width="3" stroke-miterlimit="10"/>
<path d="M1297.87 158.931V143.971L1288.98 136.791L1280.1 143.971V158.931" stroke="#005AA0" stroke-width="3" stroke-miterlimit="10"/>
<path d="M1288.98 145.842V153.962" stroke="#E30613" stroke-width="3" stroke-miterlimit="10"/>
<path d="M1307.94 124.15V165.92" stroke="#005AA0" stroke-width="3" stroke-miterlimit="10"/>
<path d="M1311.61 125.811C1319.18 125.811 1321.15 128.261 1328.24 128.261V137.831C1321.23 137.831 1319.19 135.381 1311.61 135.381" stroke="#005AA0" stroke-width="3" stroke-miterlimit="10"/>
<path d="M1307.94 121.38C1309.11 121.38 1310.05 120.435 1310.05 119.27C1310.05 118.105 1309.11 117.16 1307.94 117.16C1306.77 117.16 1305.83 118.105 1305.83 119.27C1305.83 120.435 1306.77 121.38 1307.94 121.38Z" fill="#005AA0"/>
<path d="M767.21 41.9297H758.41" stroke="#005AA0" stroke-width="3" stroke-miterlimit="10"/>
<path d="M800.31 41.9297H791.51" stroke="#005AA0" stroke-width="3" stroke-miterlimit="10"/>
<path d="M779.36 54.0898V62.8898" stroke="#005AA0" stroke-width="3" stroke-miterlimit="10"/>
<path d="M779.36 20.9805V29.7905" stroke="#005AA0" stroke-width="3" stroke-miterlimit="10"/>
<path d="M764.54 27.1211L770.76 33.3411" stroke="#E30613" stroke-width="3" stroke-miterlimit="10"/>
<path d="M787.95 50.5312L794.17 56.7513" stroke="#005AA0" stroke-width="3" stroke-miterlimit="10"/>
<path d="M794.17 27.1211L787.95 33.3411" stroke="#005AA0" stroke-width="3" stroke-miterlimit="10"/>
<path d="M770.76 50.5312L764.54 56.7513" stroke="#E30613" stroke-width="3" stroke-miterlimit="10"/>
<path d="M782.452 49.4023C786.575 47.6946 788.533 42.968 786.825 38.8452C785.117 34.7225 780.391 32.7647 776.268 34.4724C772.145 36.1801 770.188 40.9066 771.895 45.0294C773.603 49.1522 778.33 51.11 782.452 49.4023Z" stroke="#005AA0" stroke-width="3" stroke-miterlimit="10"/>
<path d="M490.18 153.1H497.34" stroke="#005AA0" stroke-width="3" stroke-miterlimit="10"/>
<path d="M487.3 177.961H469.73L467.66 171.011L471.25 153.061H532.55L540.91 171.011L535.33 177.961H530.35" stroke="#005AA0" stroke-width="3" stroke-miterlimit="10"/>
<path d="M523.66 166.851H532.47L528.44 158.201H523.66V166.851Z" stroke="#005AA0" stroke-width="3" stroke-miterlimit="10"/>
<path d="M498.58 177.96C498.58 178.63 498.42 179.26 498.15 179.83C497.46 181.23 496.02 182.19 494.35 182.19C492.01 182.19 490.12 180.29 490.12 177.96C490.12 175.62 492.01 173.73 494.35 173.73C496.69 173.73 498.58 175.63 498.58 177.96V177.96Z" stroke="#005AA0" stroke-width="3" stroke-miterlimit="10"/>
<path d="M528.02 177.96C528.02 178.63 527.86 179.26 527.59 179.83C526.9 181.23 525.46 182.19 523.79 182.19C521.45 182.19 519.56 180.29 519.56 177.96C519.56 175.62 521.45 173.73 523.79 173.73C526.13 173.73 528.02 175.63 528.02 177.96V177.96Z" stroke="#005AA0" stroke-width="3" stroke-miterlimit="10"/>
<path d="M490.11 158.201H476.24V164.121H490.11V158.201Z" stroke="#E30613" stroke-width="3" stroke-miterlimit="10"/>
<path d="M503.89 178.791V158.151H513.69V178.791" stroke="#005AA0" stroke-width="3" stroke-miterlimit="10"/>
<path d="M201.67 147.25H284.25" stroke="#005AA0" stroke-width="3" stroke-miterlimit="10"/>
<path d="M317.3 158.34L318.57 147.25H305.77H290.11" stroke="#005AA0" stroke-width="3" stroke-miterlimit="10"/>
<path d="M206.75 147.25H180.69L182.03 158.34" stroke="#005AA0" stroke-width="3" stroke-miterlimit="10"/>
<path d="M259.46 139.391H294.34" stroke="#005AA0" stroke-width="3" stroke-miterlimit="10"/>
<path d="M242.11 115.52V101.15" stroke="#005AA0" stroke-width="3" stroke-miterlimit="10"/>
<path d="M246.53 111.102H237.69" stroke="#005AA0" stroke-width="3" stroke-miterlimit="10"/>
<path d="M193.4 121.511C191.62 119.731 191.62 116.831 193.4 115.051" stroke="#005AA0" stroke-width="3" stroke-miterlimit="10"/>
<path d="M186.94 121.511C188.72 119.731 191.62 119.731 193.4 121.511" stroke="#005AA0" stroke-width="3" stroke-miterlimit="10"/>
<path d="M104.85 43.8409C103.09 40.3809 104.46 36.1409 107.92 34.3809" stroke="#005AA0" stroke-width="3" stroke-miterlimit="10"/>
<path d="M95.3799 40.7708C98.8399 39.0108 103.08 40.3808 104.84 43.8408" stroke="#005AA0" stroke-width="3" stroke-miterlimit="10"/>
<path d="M202.07 147.251L203 131.541H293.78L294.92 147.251" stroke="#005AA0" stroke-width="3" stroke-miterlimit="10"/>
<path d="M234.1 131.541V115.521H252.98V127.821" stroke="#005AA0" stroke-width="3" stroke-miterlimit="10"/>
<path d="M259.46 131.542V125.352H273.36V131.542" stroke="#005AA0" stroke-width="3" stroke-miterlimit="10"/>
<path d="M239.13 141.29V137.5" stroke="#005AA0" stroke-width="3" stroke-miterlimit="10"/>
<path d="M249.69 141.29V137.5" stroke="#E30613" stroke-width="3" stroke-miterlimit="10"/>
<path d="M240.11 123.661V119.871" stroke="#005AA0" stroke-width="3" stroke-miterlimit="10"/>
<path d="M246.97 123.661V119.871" stroke="#005AA0" stroke-width="3" stroke-miterlimit="10"/>
<path d="M211.8 141.29V137.5" stroke="#005AA0" stroke-width="3" stroke-miterlimit="10"/>
<path d="M220.65 141.29V137.5" stroke="#005AA0" stroke-width="3" stroke-miterlimit="10"/>
<path d="M229.53 141.29V137.5" stroke="#005AA0" stroke-width="3" stroke-miterlimit="10"/>
<path d="M329.22 161.141C322.78 161.141 322.78 156.891 316.34 156.891C309.9 156.891 309.9 161.141 303.46 161.141C297.02 161.141 297.02 156.891 290.58 156.891C284.14 156.891 284.14 161.141 277.7 161.141C271.26 161.141 271.26 156.891 264.82 156.891C258.38 156.891 258.38 161.141 251.94 161.141C245.5 161.141 245.5 156.891 239.06 156.891" stroke="#005AA0" stroke-width="3" stroke-miterlimit="10"/>
<path d="M239.05 156.891C232.61 156.891 232.61 161.141 226.17 161.141C219.73 161.141 219.73 156.891 213.29 156.891C206.85 156.891 206.85 161.141 200.41 161.141C193.97 161.141 193.97 156.891 187.53 156.891C181.09 156.891 181.09 161.141 174.65 161.141C168.21 161.141 168.21 156.891 161.77 156.891" stroke="#005AA0" stroke-width="3" stroke-miterlimit="10"/>
<path d="M1053.72 165.539C1053.72 170.809 1057.99 175.079 1063.26 175.079C1068.53 175.079 1072.8 170.809 1072.8 165.539H1053.73H1053.72Z" stroke="#005AA0" stroke-width="3" stroke-miterlimit="10"/>
<path d="M1072.79 165.089C1072.79 160.689 1069.22 157.119 1064.82 157.119V165.089" stroke="#005AA0" stroke-width="3" stroke-miterlimit="10"/>
<path d="M1054.01 165.54L1049.57 161.09" stroke="#005AA0" stroke-width="3" stroke-miterlimit="10"/>
<path d="M1065.17 177.01C1065.17 178.53 1066.4 179.76 1067.92 179.76C1069.44 179.76 1070.67 178.53 1070.67 177.01C1070.67 175.49 1069.44 174.26 1067.92 174.26C1066.4 174.26 1065.17 175.49 1065.17 177.01Z" stroke="#005AA0" stroke-width="3" stroke-miterlimit="10"/>
<path d="M1055.67 177.01C1055.67 178.53 1056.9 179.76 1058.42 179.76C1059.94 179.76 1061.17 178.53 1061.17 177.01C1061.17 175.49 1059.94 174.26 1058.42 174.26C1056.9 174.26 1055.67 175.49 1055.67 177.01Z" stroke="#005AA0" stroke-width="3" stroke-miterlimit="10"/>
<path d="M1036.7 152.57C1037.02 155.16 1039.37 156.99 1041.96 156.68C1044.55 156.36 1046.38 154.01 1046.07 151.42C1045.75 148.83 1043.4 147 1040.81 147.31C1038.22 147.63 1036.39 149.98 1036.7 152.57V152.57Z" stroke="#005AA0" stroke-width="3" stroke-miterlimit="10"/>
<path d="M1037 154.68V178.92H1039.89" stroke="#005AA0" stroke-width="3" stroke-miterlimit="10"/>
<path d="M1042.36 156.709V178.919H1045.18" stroke="#005AA0" stroke-width="3" stroke-miterlimit="10"/>
<path d="M1037.04 154.889C1037.04 154.889 1031.44 157.579 1031.44 161.089C1031.44 164.599 1036.66 168.209 1036.66 168.209" stroke="#005AA0" stroke-width="3" stroke-miterlimit="10"/>
<path d="M1051.23 160.79C1051.23 160.79 1044.55 164.77 1042.36 157.51" stroke="#005AA0" stroke-width="3" stroke-miterlimit="10"/>
<path d="M980.52 159.73H1019.5" stroke="#005AA0" stroke-width="3" stroke-miterlimit="10"/>
<path d="M980.52 165.5H1019.5" stroke="#005AA0" stroke-width="3" stroke-miterlimit="10"/>
<path d="M977.14 170.871H1022.87" stroke="#005AA0" stroke-width="3" stroke-miterlimit="10"/>
<path d="M986.45 159.73V170.87" stroke="#005AA0" stroke-width="3" stroke-miterlimit="10"/>
<path d="M1014.35 159.73V170.87" stroke="#005AA0" stroke-width="3" stroke-miterlimit="10"/>
<path d="M981.15 171.961V178.551" stroke="#005AA0" stroke-width="3" stroke-miterlimit="10"/>
<path d="M1019.5 171.961V178.551" stroke="#005AA0" stroke-width="3" stroke-miterlimit="10"/>
<path d="M778.76 137.73H785.8" stroke="#005AA0" stroke-width="3" stroke-miterlimit="10"/>
<path d="M724.43 137.73H731.47" stroke="#005AA0" stroke-width="3" stroke-miterlimit="10"/>
<path d="M760.72 146.65H767.77" stroke="#E30613" stroke-width="3" stroke-miterlimit="10"/>
<path d="M738.1 109.061C745.41 110.871 750.84 117.481 750.84 125.351" stroke="#005AA0" stroke-width="3" stroke-miterlimit="10"/>
<path d="M734.06 108.571C734.83 108.571 735.59 108.621 736.34 108.721" stroke="#005AA0" stroke-width="3" stroke-miterlimit="10"/>
<path d="M760.63 125.361C760.63 119.581 763.55 114.481 768 111.461" stroke="#005AA0" stroke-width="3" stroke-miterlimit="10"/>
<path d="M755.74 102.44V99.2305" stroke="#005AA0" stroke-width="3" stroke-miterlimit="10"/>
<path d="M755.74 125.36V104" stroke="#005AA0" stroke-width="3" stroke-miterlimit="10"/>
<path d="M769.74 110.43C772.04 109.24 774.65 108.58 777.42 108.58" stroke="#005AA0" stroke-width="3" stroke-miterlimit="10"/>
<path d="M741.42 130.111H736.18V125.361H775.29V130.111H771.74V138.681H739.73V133.231" stroke="#005AA0" stroke-width="3" stroke-miterlimit="10"/>
<path d="M744.47 133.23V138.43" stroke="#005AA0" stroke-width="3" stroke-miterlimit="10"/>
<path d="M752.31 133.23V138.43" stroke="#005AA0" stroke-width="3" stroke-miterlimit="10"/>
<path d="M760.16 133.23V138.43" stroke="#005AA0" stroke-width="3" stroke-miterlimit="10"/>
<path d="M767 133.23V138.43" stroke="#005AA0" stroke-width="3" stroke-miterlimit="10"/>
</svg>
