<svg xmlns="http://www.w3.org/2000/svg" width="376.299" height="40" viewBox="0 0 376.29937 40.000002"><g fill="#005C9E"><path d="M8.632.015V15.08h15.88V.016h8.632v39.252h-8.632V22.33H8.632v16.937H0V.015h8.632zM38.774 15.017c.806-1.21 1.832-2.184 3.076-2.92 1.245-.733 2.646-1.256 4.202-1.57 1.556-.31 3.12-.467 4.697-.467 1.426 0 2.873.1 4.338.303 1.464.202 2.8.596 4.01 1.183 1.207.587 2.196 1.402 2.965 2.448.77 1.045 1.153 2.43 1.153 4.154v14.798l.008 3.687c.064 1.447.067 1.512.324 2.635h-7.5c-.163-.632-.153-.652-.225-1.14-.066-.456-.062-1.132-.1-1.605-1.243 1.284-2.708 2.182-4.392 2.695-1.683.513-3.404.77-5.16.77-1.355 0-2.618-.165-3.79-.495-1.17-.33-2.196-.844-3.075-1.54-.88-.7-1.565-1.58-2.06-2.644-.493-1.065-.74-2.33-.74-3.8 0-1.614.284-2.944.85-3.99.57-1.045 1.302-1.88 2.2-2.505.896-.624 1.92-1.092 3.074-1.404 1.152-.31 2.315-.558 3.487-.742 1.17-.183 2.324-.33 3.46-.44 1.135-.11 2.142-.275 3.02-.495.88-.22 1.575-.54 2.088-.963.512-.423.75-1.037.714-1.845 0-.844-.138-1.513-.412-2.01-.273-.494-.64-.88-1.095-1.155-.456-.275-.986-.458-1.587-.55-.602-.09-1.25-.138-1.943-.138-1.532 0-2.737.332-3.612.996-.874.664-1.385 1.77-1.53 3.32H37.4c.11-1.835.57-3.36 1.374-4.57zm15.39 11.032c-.492.165-1.022.302-1.59.412-.566.11-1.16.2-1.78.274-.622.074-1.244.166-1.865.275-.586.11-1.162.256-1.728.44-.567.183-1.06.43-1.48.743-.42.312-.76.705-1.015 1.18-.255.478-.383 1.083-.383 1.816 0 .695.127 1.28.383 1.757.256.477.603.853 1.042 1.128.438.274.95.467 1.535.577.584.11 1.187.164 1.81.164 1.534 0 2.722-.255 3.563-.77.84-.512 1.462-1.126 1.864-1.84.402-.715.65-1.438.74-2.17.092-.735.138-1.32.138-1.76V25.36c-.33.293-.74.522-1.235.687zM232.96 15.017c.805-1.21 1.83-2.184 3.075-2.92 1.245-.733 2.646-1.256 4.202-1.57 1.556-.31 3.12-.467 4.696-.467 1.428 0 2.874.1 4.34.303 1.464.202 2.8.596 4.01 1.183 1.207.587 2.196 1.402 2.964 2.448.77 1.045 1.154 2.43 1.154 4.154v14.798l.01 3.687c.063 1.447.065 1.512.322 2.635h-7.5c-.163-.632-.153-.652-.224-1.14-.066-.456-.062-1.132-.1-1.605-1.243 1.284-2.708 2.182-4.392 2.695-1.684.513-3.405.77-5.162.77-1.354 0-2.617-.165-3.79-.495-1.17-.33-2.196-.844-3.074-1.54-.88-.7-1.566-1.58-2.06-2.644-.494-1.065-.74-2.33-.74-3.8 0-1.614.283-2.944.85-3.99.568-1.045 1.3-1.88 2.198-2.505.897-.624 1.92-1.092 3.075-1.404 1.154-.31 2.316-.558 3.488-.742 1.173-.183 2.326-.33 3.46-.44 1.136-.11 2.143-.275 3.022-.495.878-.22 1.574-.54 2.087-.963.512-.423.75-1.037.713-1.845 0-.844-.137-1.513-.41-2.01-.274-.494-.64-.88-1.096-1.155-.455-.275-.984-.458-1.587-.55-.6-.09-1.25-.138-1.942-.138-1.533 0-2.737.332-3.612.996-.876.664-1.387 1.77-1.533 3.32h-7.817c.11-1.835.568-3.36 1.373-4.57zm15.39 11.032c-.494.165-1.024.302-1.59.412-.567.11-1.16.2-1.782.274-.622.074-1.243.166-1.865.275-.585.11-1.16.256-1.727.44-.567.183-1.06.43-1.48.743-.42.312-.76.705-1.015 1.18-.254.478-.383 1.083-.383 1.816 0 .695.128 1.28.384 1.757.257.477.604.853 1.043 1.128.44.274.95.467 1.535.577.585.11 1.188.164 1.81.164 1.535 0 2.723-.255 3.564-.77.84-.512 1.462-1.126 1.864-1.84.403-.715.65-1.438.74-2.17.09-.735.138-1.32.138-1.76V25.36c-.33.293-.742.522-1.234.687zM74.81 10.836v3.267h.164c1.134-1.45 2.142-2.326 3.73-3.05 1.612-.736 3.314-.98 4.965-.98 2.09 0 3.805.285 5.144.852 1.34.57 2.394 1.357 3.164 2.365.77 1.007 1.312 2.235 1.623 3.683.313 1.448.47 3.05.47 4.81v17.484h-7.818v-16.06c0-2.346-.368-4.097-1.102-5.253-.735-1.155-2.04-1.733-3.913-1.733-2.13 0-3.673.635-4.628 1.9-.956 1.264-1.433 3.345-1.433 6.242v14.905H67.4v-28.43h7.41zM268.97 10.836v3.267h.164c1.134-1.45 2.14-2.326 3.73-3.05 1.612-.736 3.315-.98 4.964-.98 2.092 0 3.806.285 5.147.852 1.338.57 2.393 1.357 3.162 2.365.772 1.007 1.313 2.235 1.625 3.683.31 1.448.468 3.05.468 4.81v17.484h-7.818v-16.06c0-2.346-.368-4.097-1.102-5.253-.735-1.155-2.04-1.733-3.913-1.733-2.13 0-3.673.635-4.628 1.9-.956 1.264-1.433 3.345-1.433 6.242v14.905h-7.778v-28.43h7.41zM357.04 10.836v3.267h.164c1.133-1.45 2.14-2.326 3.73-3.05 1.61-.736 3.314-.98 4.964-.98 2.09 0 3.806.285 5.146.852 1.34.57 2.393 1.357 3.163 2.365.77 1.007 1.312 2.235 1.624 3.683.312 1.448.47 3.05.47 4.81v17.484h-7.82v-16.06c0-2.346-.367-4.097-1.1-5.253-.736-1.155-2.04-1.733-3.914-1.733-2.13 0-3.673.635-4.627 1.9-.957 1.264-1.434 3.345-1.434 6.242v14.905h-7.778v-28.43h7.41zM138.428 32.473c1.172 1.137 2.858 1.705 5.057 1.705 1.575 0 2.93-.396 4.068-1.19 1.136-.792 1.832-1.63 2.09-2.516h6.87c-1.1 3.415-2.785 5.857-5.058 7.325-2.272 1.47-5.02 2.203-8.245 2.203-2.236 0-4.25-.357-6.048-1.073-1.797-.715-3.32-1.732-4.567-3.052-1.25-1.32-2.212-2.898-2.89-4.73-.68-1.834-1.02-3.853-1.02-6.054 0-2.126.35-4.107 1.047-5.94.697-1.834 1.687-3.42 2.972-4.76 1.285-1.338 2.816-2.39 4.595-3.163 1.778-.77 3.747-1.155 5.91-1.155 2.418 0 4.526.468 6.32 1.403 1.796.937 3.272 2.194 4.426 3.772 1.154 1.578 1.988 3.376 2.5 5.394.514 2.02.698 4.128.552 6.33h-20.505c.11 2.53.75 4.367 1.925 5.503zm8.82-14.992c-.933-1.03-2.353-1.544-4.258-1.544-1.247 0-2.28.213-3.106.635-.824.423-1.485.948-1.98 1.572-.495.625-.842 1.288-1.043 1.987-.2.697-.32 1.322-.356 1.873H149.2c-.365-1.985-1.015-3.493-1.95-4.522zM167.78.015v39.252h-7.82V.015h7.82zM178.838 32.228c.348.603.798 1.096 1.35 1.48.55.382 1.182.666 1.897.847.715.184 1.458.274 2.23.274.55 0 1.127-.065 1.733-.193.605-.13 1.155-.33 1.65-.605.495-.274.91-.642 1.238-1.1.332-.458.497-1.036.497-1.733 0-1.175-.78-2.055-2.338-2.642-1.558-.586-3.73-1.174-6.517-1.76-1.138-.258-2.247-.56-3.33-.908-1.08-.35-2.042-.807-2.886-1.375-.843-.57-1.522-1.284-2.035-2.147-.514-.862-.77-1.917-.77-3.163 0-1.834.358-3.337 1.073-4.51.715-1.174 1.66-2.1 2.833-2.78 1.173-.677 2.494-1.154 3.96-1.43 1.468-.274 2.97-.413 4.51-.413 1.54 0 3.036.148 4.484.44 1.448.295 2.74.79 3.88 1.487 1.135.696 2.08 1.623 2.832 2.778.75 1.155 1.2 2.613 1.347 4.375h-7.41c-.11-1.51-.68-2.533-1.708-3.067-1.03-.534-2.24-.802-3.635-.802-.44 0-.918.028-1.432.083-.514.056-.982.175-1.403.36-.423.182-.78.448-1.075.796-.293.35-.44.817-.44 1.404 0 .697.256 1.266.77 1.706.513.44 1.182.798 2.008 1.073.824.276 1.77.523 2.833.743 1.062.22 2.144.458 3.244.715 1.137.257 2.246.57 3.328.935 1.082.368 2.044.855 2.887 1.46.844.606 1.522 1.357 2.035 2.256.514.9.77 2.01.77 3.33 0 1.873-.376 3.44-1.126 4.707-.752 1.266-1.734 2.285-2.944 3.055s-2.594 1.313-4.15 1.625c-1.56.31-3.146.467-4.76.467-1.65 0-3.263-.164-4.84-.494-1.576-.33-2.978-.878-4.206-1.646-1.23-.77-2.237-1.784-3.026-3.047-.787-1.262-1.218-2.845-1.29-4.75h7.41c-.002.842.17 1.564.52 2.165zM300.212.015v21.057l9.84-10.226h9.234l-10.72 10.446 11.93 17.975h-9.455l-7.805-12.697-3.023 2.914v9.784h-7.818V.015h7.818z"/><path d="M328.21 32.473c1.174 1.137 2.86 1.705 5.06 1.705 1.574 0 2.93-.396 4.066-1.19 1.137-.792 1.832-1.63 2.09-2.516h6.87c-1.098 3.415-2.785 5.857-5.056 7.325-2.273 1.47-5.02 2.203-8.245 2.203-2.236 0-4.253-.357-6.05-1.073-1.796-.715-3.318-1.732-4.567-3.052-1.247-1.32-2.21-2.898-2.89-4.73-.678-1.834-1.018-3.853-1.018-6.054 0-2.126.348-4.107 1.046-5.94.697-1.834 1.688-3.42 2.973-4.76 1.283-1.338 2.815-2.39 4.594-3.163 1.777-.77 3.75-1.155 5.91-1.155 2.42 0 4.527.468 6.322 1.403 1.795.937 3.27 2.194 4.424 3.772 1.154 1.578 1.99 3.376 2.502 5.394.513 2.02.696 4.128.55 6.33h-20.504c.11 2.53.75 4.367 1.923 5.503zm8.825-14.992c-.936-1.03-2.356-1.544-4.26-1.544-1.247 0-2.282.213-3.107.635-.825.423-1.484.948-1.98 1.572-.494.625-.843 1.288-1.043 1.987-.202.697-.32 1.322-.358 1.873h12.7c-.367-1.985-1.02-3.493-1.952-4.522zM117.953 0v13.727h-.082c-1.025-1.292-2.047-2.05-3.572-2.72-1.607-.71-3.156-.95-4.843-.95-2.09 0-3.923.414-5.5 1.24-1.576.825-2.888 1.915-3.933 3.273-1.044 1.356-1.833 2.924-2.365 4.703-.532 1.78-.797 3.623-.797 5.53 0 1.98.265 3.887.797 5.72.53 1.834 1.318 3.458 2.363 4.87 1.043 1.412 2.372 2.53 3.984 3.356 1.613.824 3.48 1.228 5.605 1.236 1.38.006 3.28-.177 4.78-.795 1.508-.62 2.724-1.382 3.848-2.906h.11v2.987h7.422V0h-7.817zM111.1 34.26c-5.153 0-7.32-4.785-7.32-9.242 0-4.673 1.88-9.215 7.325-9.215 5.388 0 7.14 4.542 7.14 9.16 0 4.678-1.64 9.297-7.146 9.297zM200.213 0v39.27h7.423v-2.987h.11c1.123 1.524 2.34 2.285 3.846 2.907 1.5.618 3.4.8 4.78.795 2.126-.008 3.994-.412 5.607-1.237 1.61-.825 2.94-1.944 3.983-3.356 1.044-1.412 1.832-3.035 2.363-4.87.53-1.833.796-3.74.796-5.72 0-1.907-.265-3.75-.796-5.53-.532-1.78-1.32-3.346-2.366-4.703-1.044-1.36-2.357-2.45-3.933-3.275-1.577-.824-3.41-1.238-5.5-1.238-1.687 0-3.235.24-4.842.948-1.525.673-2.547 1.43-3.574 2.72h-.08V0h-7.817zm7.525 24.964c0-4.62 1.75-9.16 7.14-9.16 5.445 0 7.325 4.54 7.325 9.214 0 4.457-2.167 9.242-7.32 9.242-5.505 0-7.145-4.62-7.145-9.296z"/></g></svg>