<?xml version="1.0" encoding="utf-8"?>
<!-- Generator: Adobe Illustrator 24.3.0, SVG Export Plug-In . SVG Version: 6.00 Build 0)  -->
<svg version="1.1" id="Layer_1" xmlns="http://www.w3.org/2000/svg" xmlns:xlink="http://www.w3.org/1999/xlink" x="0px" y="0px"
	 viewBox="0 0 448.99 118.79" width="449" height="119" style="enable-background:new 0 0 448.99 118.79;" xml:space="preserve">
<style type="text/css">
	.st0{fill:#FFDF00;}
</style>
<path class="st0" d="M448.99,106.79c0,6.63-5.37,12-12,12H12c-6.63,0-12-5.37-12-12V12C0,5.37,5.37,0,12,0h424.99
	c6.63,0,12,5.37,12,12V106.79z"/>
<g>
	<g>
		<path d="M46.93,76.3c-3.54,0-7.19-0.53-10.37-2.24l-0.53-0.29c-0.12-0.06-0.18-0.12-0.24-0.12c-0.24,0-1.06,1.18-1.71,2.06h-0.77
			l-0.18-11.96h0.83c1.41,4.24,4.54,8.43,7.19,9.78c1.36,0.71,3.71,1.53,5.72,1.53c5.66,0,9.55-3.36,9.55-8.6
			c0-4.3-2.89-6.19-6.6-7.6c-3.77-1.41-5.13-1.71-8.6-3.07c-4.07-1.59-7.78-5.6-7.78-10.73c0-8.49,6.72-12.38,14.14-12.38
			c3.24,0,6.66,0.65,9.43,2.42c0.18,0.12,0.35,0.24,0.47,0.3c0.06,0.06,0.12,0.12,0.12,0.12c0.24,0,1.12-1.18,1.71-2.12h0.83v11.14
			h-0.88c-1.94-5.3-5.78-10.61-11.73-10.61c-4.83,0-8.6,2.83-8.6,8.07c0,4.01,2.71,6.36,6.6,7.84c3.18,1.18,5.36,1.83,8.37,2.95
			c5.3,1.94,8.43,5.72,8.43,11.32C62.31,71.71,55.83,76.3,46.93,76.3z"/>
		<path d="M77.65,75.59c-1.36,0-2.65-0.12-4.07-0.35c0.06,2.59,0.12,9.08,0.12,11.9c0.12,0.59,0.88,0.88,1.83,1.06
			c0.94,0.18,2.12,0.18,3.01,0.29v0.94H63.75V88.5c1.89-0.18,4.77-0.59,4.77-1.83V54.14c0-0.59-0.06-0.83-0.53-1.12
			c-0.71-0.41-2.59-1.24-3.6-1.71v-0.59l8.66-3.42h0.53v6.48c2.12-2.89,5.3-6.48,9.72-6.48c7.43,0,10.84,6.66,10.84,12.91
			C94.16,69.05,87.85,75.59,77.65,75.59z M80.01,51.43c-4.01,0-6.36,3.42-6.36,4.3c0,1.53-0.06,3.48-0.06,4.77
			c0,3.24-0.06,4.6,0.06,6.42c0.24,3.36,1.3,7.25,6.36,7.25c4.36,0,8.61-5.07,8.61-12.26C88.62,56.09,85.85,51.43,80.01,51.43z"/>
		<path d="M116.43,75.95c-2.65,0-5.13-1.41-5.25-5.25c-1.36,2.12-4.3,5.13-8.37,5.13c-2.48,0-5.54-1.53-5.54-5.66
			c0-2.24,2-4.42,4.6-6.07c5.07-3.24,7.66-4.36,9.31-5.36v-5.89c0-0.24-0.77-2.59-4.36-2.59c-2.48,0-4.83,2-4.83,2.83v2.65
			c0,1.18-1.53,2.24-2.83,2.24c-1.3,0-2.42-1.12-2.42-2.36c0-1.94,2.06-3,3.54-3.89c4.01-2.42,8.72-4.42,10.73-4.42
			c2.06,0,4.07,1.3,4.89,2.83c0.29,0.59,0.35,2.18,0.35,3.48c0,5.54-0.12,8.66-0.12,13.97c0,3.42,1.41,4.18,2.83,4.18
			c1.77,0,2.48-0.77,2.77-2h0.59C122.15,72.94,119.79,75.95,116.43,75.95z M111.19,60.04c-0.65,0.47-1.53,0.94-2.42,1.47
			c-1,0.59-2.06,1.18-3.06,1.83c-2,1.36-3.54,2.89-3.54,4.77c0,2,1.47,3.83,3.65,3.83c1.94,0,3.48-0.41,4.71-1.65
			c0.47-0.47,0.65-1,0.65-1.53V60.04z"/>
		<path d="M140.37,53.67c-1.36,0-1.94-0.59-2.53-1.12c-0.65-0.59-1.12-1-2.06-1c-1.77,0-3.42,2.77-4.3,5.19v16.74
			c0.24,0.65,1,0.94,1.95,1.12c0.94,0.18,2.12,0.18,3.01,0.29v0.88H123.1v-0.88c1.94-0.18,3.24-0.65,3.24-1.71V53.43
			c0-0.59-0.06-0.77-0.53-1.06c-0.71-0.41-1.65-1-2.65-1.47v-0.59l7.72-3.01h0.53l-0.12,7.78c0.65-1.53,1.41-3.01,2.42-4.36
			c1.36-1.83,3.12-3.42,5.66-3.42c2,0,3.65,1.36,3.65,3.24C143.02,52.32,141.78,53.67,140.37,53.67z"/>
		<path d="M158.82,75.95c-4.42,0-8.25-1.41-10.73-3.54h-0.18l-1.41,3.18h-0.65V39.05c-0.71-0.47-2-1.18-3.36-1.89v-0.59l7.96-3.59
			h0.65l-0.18,20.63c1.53-3.18,5.95-6.42,10.2-6.42c7.37,0,11.55,6.84,11.55,14.26C172.67,69.41,166.83,75.95,158.82,75.95z
			 M157.88,51.2c-4.71,0-6.78,3.54-6.84,4.42c-0.06,0.94-0.06,3.07-0.06,4.13c0,1.53,0,3.12,0.06,4.6
			c0.18,5.19,2.24,10.37,7.96,10.37c4.77,0,8.02-5.19,8.02-12.44C167.01,56.44,164.18,51.2,157.88,51.2z"/>
		<path d="M194.92,75.95c-2.65,0-5.13-1.41-5.25-5.25c-1.36,2.12-4.3,5.13-8.37,5.13c-2.48,0-5.54-1.53-5.54-5.66
			c0-2.24,2-4.42,4.6-6.07c5.07-3.24,7.66-4.36,9.31-5.36v-5.89c0-0.24-0.77-2.59-4.36-2.59c-2.48,0-4.83,2-4.83,2.83v2.65
			c0,1.18-1.53,2.24-2.83,2.24c-1.3,0-2.42-1.12-2.42-2.36c0-1.94,2.06-3,3.54-3.89c4.01-2.42,8.72-4.42,10.73-4.42
			c2.06,0,4.07,1.3,4.89,2.83c0.29,0.59,0.35,2.18,0.35,3.48c0,5.54-0.12,8.66-0.12,13.97c0,3.42,1.41,4.18,2.83,4.18
			c1.77,0,2.48-0.77,2.77-2h0.59C200.63,72.94,198.27,75.95,194.92,75.95z M189.67,60.04c-0.65,0.47-1.53,0.94-2.42,1.47
			c-1,0.59-2.06,1.18-3.06,1.83c-2,1.36-3.54,2.89-3.54,4.77c0,2,1.47,3.83,3.65,3.83c1.94,0,3.48-0.41,4.71-1.65
			c0.47-0.47,0.65-1,0.65-1.53V60.04z"/>
		<path d="M217.88,75.77v-0.94c2.3-0.12,3.48-0.35,3.48-1.41V58.68c0-4.48-1.59-7.37-5.48-7.37c-2.48,0-3.83,1.06-5.89,3.12v19.1
			c0.24,1.06,1,1.12,1.89,1.24c0.35,0.06,0.71,0.06,1.24,0.12v0.88h-11.55v-0.88c2-0.18,3.24-0.65,3.24-1.71v-20.1
			c0-0.59,0-0.77-0.47-1.06c-0.71-0.41-1.71-0.88-2.71-1.36v-0.59l7.78-2.77h0.53v6.19c1.77-2.65,5.3-6.19,9.43-6.19
			c4.6,0,7.19,3.83,7.19,9.13v17.15c0,0.47,0.41,0.77,1.12,1c0.71,0.24,1.65,0.24,2.42,0.35v0.83H217.88z"/>
		<path d="M247.58,75.77v-0.88c1.59-0.06,2.77-0.06,2.77-1.06c0-0.82-4.66-7.54-6.95-10.73c-0.71-0.94-1.06-1.18-1.59-1.18
			c-0.29,0-0.53,0-0.77,0.12v11.37c0,1.12,1.12,1.24,1.94,1.36c0.35,0.06,0.77,0.06,1.3,0.12v0.88h-11.91v-0.88
			c2-0.18,3.48-0.41,3.48-1.71V40.12c0-0.53,0-0.82-0.47-1.18c-0.24-0.18-0.65-0.47-1.18-0.77c-0.53-0.29-1.12-0.53-1.71-0.83v-0.59
			l7.9-3.6h0.65v27.82c4.6-3.83,10.96-9.96,10.96-10.9c0-1-2.71-1.36-4.71-1.42v-0.88h14.62v0.88c-0.41,0.06-1.71,0.12-3.42,0.53
			c-1.71,0.41-3.65,1.12-5.25,2.48c-2.42,2.06-4.95,4.42-7.01,6.31c3.36,5.19,6.6,9.96,8.78,12.91c1.36,1.89,2.47,3.01,3.36,3.65
			c0.59,0.18,2.06,0.35,3.65,0.35v0.88H247.58z"/>
		<path d="M273.34,75.95c-8.07,0-13.32-6.78-13.32-14.97c0-6.66,4.89-13.67,12.49-13.67c6.19,0,10.96,3.12,11.43,9.9h-18.68
			c0,0.59-0.12,1.36-0.12,2.18c0,6.54,3.6,12.26,10.67,12.26c3.77,0,6.95-2.24,7.9-5.19l0.71,0.18
			C283.83,70.35,279.82,75.95,273.34,75.95z M272.57,48.6c-4.13,0-6.84,5.42-7.19,7.48c3.36,0,5.36-0.06,8.9-0.12
			c1.18,0,2.18,0,2.89-0.29c0.47-0.53,0.71-1,0.71-2C277.88,50.9,275.82,48.6,272.57,48.6z"/>
		<path d="M302.26,75.77v-0.94c2.3-0.12,3.48-0.35,3.48-1.41V58.68c0-4.48-1.59-7.37-5.48-7.37c-2.47,0-3.83,1.06-5.89,3.12v19.1
			c0.24,1.06,1,1.12,1.89,1.24c0.35,0.06,0.71,0.06,1.24,0.12v0.88h-11.55v-0.88c2-0.18,3.24-0.65,3.24-1.71v-20.1
			c0-0.59,0-0.77-0.47-1.06c-0.71-0.41-1.71-0.88-2.71-1.36v-0.59l7.78-2.77h0.53v6.19c1.77-2.65,5.3-6.19,9.43-6.19
			c4.6,0,7.19,3.83,7.19,9.13v17.15c0,0.47,0.41,0.77,1.12,1c0.71,0.24,1.65,0.24,2.42,0.35v0.83H302.26z"/>
		<path d="M345.75,76.3c-3.54,0-7.19-0.53-10.37-2.24l-0.53-0.29c-0.12-0.06-0.18-0.12-0.24-0.12c-0.24,0-1.06,1.18-1.71,2.06h-0.77
			l-0.18-11.96h0.83c1.42,4.24,4.54,8.43,7.19,9.78c1.36,0.71,3.71,1.53,5.72,1.53c5.66,0,9.55-3.36,9.55-8.6
			c0-4.3-2.89-6.19-6.6-7.6c-3.77-1.41-5.13-1.71-8.6-3.07c-4.07-1.59-7.78-5.6-7.78-10.73c0-8.49,6.72-12.38,14.14-12.38
			c3.24,0,6.66,0.65,9.43,2.42c0.18,0.12,0.35,0.24,0.47,0.3c0.06,0.06,0.12,0.12,0.12,0.12c0.24,0,1.12-1.18,1.71-2.12h0.83v11.14
			h-0.88c-1.94-5.3-5.78-10.61-11.73-10.61c-4.83,0-8.6,2.83-8.6,8.07c0,4.01,2.71,6.36,6.6,7.84c3.18,1.18,5.36,1.83,8.37,2.95
			c5.3,1.94,8.43,5.72,8.43,11.32C361.13,71.71,354.65,76.3,345.75,76.3z"/>
		<path d="M384.22,51.31c-1.18,3.71-6.9,21.98-10.73,34.42c-0.94,3.01-2.89,4.3-4.77,4.3c-1.65,0-3.3-1.12-3.3-2.77
			c0-1.65,1.12-2.83,2.71-2.83c1.53,0,2.59,1.12,3.6,2.12c1.59-4.07,2.65-8.25,2.83-9.08c-0.53-1.41-6.48-17.86-9.96-27.29
			c-0.65-0.71-1.3-1.24-4.13-1.36V47.9h13.14v0.94c-0.65,0.12-1.59,0.18-2.24,0.47c-0.53,0.24-0.83,0.59-0.83,1.24
			c0,0.53,1.18,3.95,2.59,7.96c1.36,3.77,2.95,8.07,3.95,10.9c0.47-1.47,1.71-5.54,2.95-9.55c1.36-4.48,2.65-8.84,2.65-9.49
			c0-1.12-1.18-1.3-2-1.41c-0.35-0.06-0.77-0.06-1.24-0.12V47.9h9.25v0.94C386.69,48.96,384.99,48.96,384.22,51.31z"/>
		<path d="M408.37,76.07h-0.47v-5.66c-2.24,3.65-5.19,5.54-9.67,5.54c-5.89,0-11.38-5.01-11.38-14.14c0-8.19,6.01-14.62,15.03-14.62
			c2.24,0,4.3,0.41,5.95,0.94c-0.12-2.48-0.06-8.37-0.06-10.14l-4.83-1.83v-0.59l9.43-2.59h0.65v38.07
			c0.65,0.35,2.65,1.18,4.13,1.77v0.65L408.37,76.07z M407.84,53.85c-1.71-3.18-4.66-5.25-6.84-5.25c-5.89,0-8.43,6.01-8.43,12.44
			c0,6.42,3.12,12.32,9.08,12.32c3.06,0,5.54-2.36,6.19-5.66V53.85z"/>
	</g>
</g>
</svg>
